# xmcd
#
# Track frame offsets: 
#        182
#        19867
#        49722
#        75417
#        104210
#        128552
#        149075
#        167712
#        189785
#        207400
#        226145
#        257275
#        281390
#        310490
#
# Disc length: 4398 seconds
#
# Revision: 3
# Processed by: cddbd v1.5.2PL0 Copyright (c) Steve Scherf et al.
# Submitted via: ExactAudioCopy v0.99pb5
#
DISCID=bc112c0e
DTITLE=Cameo - The Best Of Cameo
DYEAR=1993
DGENRE=Funk
TTITLE0=Word Up
TTITLE1=Single Life
TTITLE2=Candy
TTITLE3=Shake Your Pants
TTITLE4=Rigor Mortis
TTITLE5=Attack Me With Your Love
TTITLE6=Talkin' Out The Side Of Your Neck
TTITLE7=Sparkle
TTITLE8=Back And Forth
TTITLE9=Flirt
TTITLE10=She's Strange (12 Rap Version)
TTITLE11=I Just Want To Be
TTITLE12=Skin I'm In
TTITLE13=It's Over
EXTD=
EXTT0=
EXTT1=
EXTT2=
EXTT3=
EXTT4=
EXTT5=
EXTT6=
EXTT7=
EXTT8=
EXTT9=
EXTT10=
EXTT11=
EXTT12=
EXTT13=
PLAYORDER=
